<svg width="244" height="61" viewBox="0 0 244 61" fill="none" xmlns="http://www.w3.org/2000/svg">
<rect x="1.25" y="1.70312" width="241.5" height="58.5" rx="29.25" stroke="#0C122A" style="stroke:#0C122A;stroke:color(display-p3 0.0471 0.0706 0.1647);stroke-opacity:1;" stroke-width="1.5"/>
<path d="M46.03 35.9531V32.7191C45.5353 32.9898 44.868 33.1251 44.028 33.1251C43.1227 33.1251 42.39 32.8358 41.83 32.2571C41.27 31.6691 40.99 30.9411 40.99 30.0731V26.1531H43.258V29.5411C43.258 30.7451 43.7667 31.3471 44.784 31.3471C45.3347 31.3471 45.75 31.2351 46.03 31.0111V26.1531H48.284V35.9531H46.03ZM57.118 29.8491L53.73 35.2811V35.9531H51.462V26.1531H53.73V32.2571L57.118 26.8251V26.1531H59.386V35.9531H57.118V29.8491ZM64.3581 35.9531V28.1691H61.6701V26.1531H69.3141V28.1691H66.6121V35.9531H64.3581ZM76.2373 35.9531L75.9013 34.7631H72.4293L72.0933 35.9531H69.6993L73.0173 26.1531H75.2993L78.6313 35.9531H76.2373ZM72.9333 32.9851H75.3973L74.1653 28.6311L72.9333 32.9851ZM81.671 35.9531V28.1691H78.983V26.1531H86.627V28.1691H83.925V35.9531H81.671ZM94.5603 29.8491L91.1723 35.2811V35.9531H88.9043V26.1531H91.1723V32.2571L94.5603 26.8251V26.1531H96.8283V35.9531H94.5603V29.8491ZM104.659 35.9531V26.1531H111.127V27.9731H106.927V30.1431H109.111C109.96 30.1431 110.651 30.4185 111.183 30.9691C111.715 31.5198 111.981 32.2011 111.981 33.0131C111.981 33.8438 111.71 34.5438 111.169 35.1131C110.637 35.6731 109.951 35.9531 109.111 35.9531H104.659ZM106.927 34.2451H108.523C108.877 34.2451 109.162 34.1285 109.377 33.8951C109.591 33.6525 109.699 33.3538 109.699 32.9991C109.699 32.6538 109.591 32.3645 109.377 32.1311C109.162 31.8978 108.877 31.7811 108.523 31.7811H106.927V34.2451ZM114.532 35.9531V26.1531H116.8V35.9531H114.532ZM119.262 34.1051H119.612C120.405 34.1051 120.802 33.3865 120.802 31.9491V26.1531H127.942V35.9531H125.674V28.0711H123.07V31.9351C123.07 33.3445 122.809 34.3898 122.286 35.0711C121.763 35.7431 121.035 36.0791 120.102 36.0791H119.262V34.1051ZM131.107 35.9531V26.1531H133.375V30.0731H135.475C136.333 30.0731 137.038 30.3578 137.589 30.9271C138.149 31.4965 138.429 32.1918 138.429 33.0131C138.429 33.8251 138.149 34.5205 137.589 35.0991C137.029 35.6685 136.324 35.9531 135.475 35.9531H131.107ZM133.375 34.2451H134.971C135.325 34.2451 135.61 34.1285 135.825 33.8951C136.039 33.6618 136.147 33.3631 136.147 32.9991C136.147 32.6538 136.039 32.3645 135.825 32.1311C135.61 31.8978 135.325 31.7811 134.971 31.7811H133.375V34.2451ZM140.98 35.9531V26.1531H143.248V34.0211H145.684V26.1531H147.952V34.0211H150.388V26.1531H152.656V35.9531H140.98ZM155.816 35.9531V26.1531H161.808V27.9731H158.084V30.1991H161.808V31.9771H158.084V34.1331H161.808V35.9531H155.816Z" fill="#0C122A" style="fill:#0C122A;fill:color(display-p3 0.0471 0.0706 0.1647);fill-opacity:1;"/>
<path d="M191.5 22.9531L190.09 24.3631L195.67 29.9531H183.5V31.9531H195.67L190.09 37.5431L191.5 38.9531L199.5 30.9531L191.5 22.9531Z" fill="#0C122A" style="fill:#0C122A;fill:color(display-p3 0.0471 0.0706 0.1647);fill-opacity:1;"/>
</svg>
