<svg width="237" height="60" viewBox="0 0 237 60" fill="none" xmlns="http://www.w3.org/2000/svg">
<rect width="237" height="60" rx="30" fill="#0C122A" style="fill:#0C122A;fill:color(display-p3 0.0471 0.0706 0.1647);fill-opacity:1;"/>
<path d="M48.526 33.11H49.282V36.68H47.196V35H42.38V36.68H40.238V33.11H40.798C41.414 33.11 41.722 32.4147 41.722 31.024V25.2H48.526V33.11ZM43.892 27.104V30.912C43.892 31.7613 43.7427 32.494 43.444 33.11H46.37V27.104H43.892ZM57.534 28.896L54.146 34.328V35H51.878V25.2H54.146V31.304L57.534 25.872V25.2H59.802V35H57.534V28.896ZM68.2741 29.988C68.8621 30.044 69.3428 30.2773 69.7161 30.688C70.0988 31.0893 70.2901 31.6213 70.2901 32.284C70.2901 33.124 70.0101 33.7867 69.4501 34.272C68.8901 34.7573 68.1248 35 67.1541 35H62.9681V25.2H67.0001C67.9708 25.2 68.7361 25.4287 69.2961 25.886C69.8654 26.334 70.1501 26.9547 70.1501 27.748C70.1501 28.3733 69.9821 28.8773 69.6461 29.26C69.3101 29.6333 68.8528 29.876 68.2741 29.988ZM66.4961 26.838H65.2361V29.218H66.4961C66.9254 29.218 67.2614 29.1153 67.5041 28.91C67.7561 28.6953 67.8821 28.4013 67.8821 28.028C67.8821 27.6547 67.7608 27.3653 67.5181 27.16C67.2754 26.9453 66.9348 26.838 66.4961 26.838ZM66.6501 33.278C67.0701 33.278 67.4014 33.166 67.6441 32.942C67.8868 32.7087 68.0081 32.3913 68.0081 31.99C68.0081 31.626 67.8821 31.3367 67.6301 31.122C67.3874 30.898 67.0608 30.786 66.6501 30.786H65.2361V33.278H66.6501ZM78.6068 28.896L75.2188 34.328V35H72.9508V25.2H75.2188V31.304L78.6068 25.872V25.2H80.8748V35H78.6068V28.896ZM85.8468 35V27.216H83.1588V25.2H90.8028V27.216H88.1008V35H85.8468ZM98.7361 28.896L95.3481 34.328V35H93.0801V25.2H95.3481V31.304L98.7361 25.872V25.2H101.004V35H98.7361V28.896ZM108.86 35.28C107.274 35.28 106 34.7993 105.038 33.838C104.077 32.8673 103.596 31.6213 103.596 30.1C103.596 28.5787 104.077 27.3373 105.038 26.376C106 25.4053 107.274 24.92 108.86 24.92C110.279 24.92 111.432 25.27 112.318 25.97C113.214 26.6607 113.728 27.5893 113.858 28.756H111.45C111.32 28.196 111.03 27.7573 110.582 27.44C110.134 27.1133 109.565 26.95 108.874 26.95C107.96 26.95 107.246 27.2347 106.732 27.804C106.219 28.364 105.962 29.1293 105.962 30.1C105.962 31.0707 106.219 31.8407 106.732 32.41C107.246 32.97 107.96 33.25 108.874 33.25C109.565 33.25 110.134 33.0913 110.582 32.774C111.03 32.4473 111.32 32.004 111.45 31.444H113.858C113.728 32.6107 113.214 33.544 112.318 34.244C111.432 34.9347 110.279 35.28 108.86 35.28ZM116.395 35V25.2H118.663V29.12H120.763C121.622 29.12 122.326 29.4047 122.877 29.974C123.437 30.5433 123.717 31.2387 123.717 32.06C123.717 32.872 123.437 33.5673 122.877 34.146C122.317 34.7153 121.612 35 120.763 35H116.395ZM118.663 33.292H120.259C120.614 33.292 120.898 33.1753 121.113 32.942C121.328 32.7087 121.435 32.41 121.435 32.046C121.435 31.7007 121.328 31.4113 121.113 31.178C120.898 30.9447 120.614 30.828 120.259 30.828H118.663V33.292ZM136.239 29.988C136.827 30.044 137.307 30.2773 137.681 30.688C138.063 31.0893 138.255 31.6213 138.255 32.284C138.255 33.124 137.975 33.7867 137.415 34.272C136.855 34.7573 136.089 35 135.119 35H130.933V25.2H134.965C135.935 25.2 136.701 25.4287 137.261 25.886C137.83 26.334 138.115 26.9547 138.115 27.748C138.115 28.3733 137.947 28.8773 137.611 29.26C137.275 29.6333 136.817 29.876 136.239 29.988ZM134.461 26.838H133.201V29.218H134.461C134.89 29.218 135.226 29.1153 135.469 28.91C135.721 28.6953 135.847 28.4013 135.847 28.028C135.847 27.6547 135.725 27.3653 135.483 27.16C135.24 26.9453 134.899 26.838 134.461 26.838ZM134.615 33.278C135.035 33.278 135.366 33.166 135.609 32.942C135.851 32.7087 135.973 32.3913 135.973 31.99C135.973 31.626 135.847 31.3367 135.595 31.122C135.352 30.898 135.025 30.786 134.615 30.786H133.201V33.278H134.615ZM145.537 35.28C143.95 35.28 142.676 34.7993 141.715 33.838C140.754 32.8673 140.273 31.6213 140.273 30.1C140.273 28.5787 140.754 27.3373 141.715 26.376C142.676 25.4053 143.95 24.92 145.537 24.92C146.956 24.92 148.108 25.27 148.995 25.97C149.891 26.6607 150.404 27.5893 150.535 28.756H148.127C147.996 28.196 147.707 27.7573 147.259 27.44C146.811 27.1133 146.242 26.95 145.551 26.95C144.636 26.95 143.922 27.2347 143.409 27.804C142.896 28.364 142.639 29.1293 142.639 30.1C142.639 31.0707 142.896 31.8407 143.409 32.41C143.922 32.97 144.636 33.25 145.551 33.25C146.242 33.25 146.811 33.0913 147.259 32.774C147.707 32.4473 147.996 32.004 148.127 31.444H150.535C150.404 32.6107 149.891 33.544 148.995 34.244C148.108 34.9347 146.956 35.28 145.537 35.28ZM153.072 35V25.2H155.34V35H153.072Z" fill="white" style="fill:white;fill-opacity:1;"/>
<path d="M185 22L183.59 23.41L189.17 29H177V31H189.17L183.59 36.59L185 38L193 30L185 22Z" fill="white" style="fill:white;fill-opacity:1;"/>
</svg>
